<svg xmlns="http://www.w3.org/2000/svg" viewBox="0 0 820 300" width="820" height="300">
  <defs>
    <marker id="arrow" viewBox="0 0 10 10" refX="8" refY="5" markerWidth="6" markerHeight="6" orient="auto-start-reverse">
      <path d="M2 1L8 5L2 9" fill="none" stroke="#5B5A55" stroke-width="1.5" stroke-linecap="round" stroke-linejoin="round"/>
    </marker>
    <style>
      text { font-family: Inter, Arial, sans-serif; }
      .title { font-size: 18px; font-weight: 700; fill: #171715; }
      .label { font-size: 13px; font-weight: 700; fill: #26323F; }
      .small { font-size: 11px; fill: #55524D; }
    </style>
  </defs>

  <rect x="122" y="18" width="576" height="44" rx="4" fill="#FBFAF7" stroke="#D6D1C8"/>
  <text x="410" y="46" text-anchor="middle" class="title">AxiomForgeAI Architecture</text>

  <rect x="30" y="110" width="136" height="70" rx="4" fill="#EAF0F7" stroke="#355C7D"/>
  <text x="98" y="140" text-anchor="middle" class="label">Math model</text>
  <text x="98" y="158" text-anchor="middle" class="small">generates attempts</text>

  <rect x="220" y="86" width="146" height="48" rx="4" fill="#ECF4EA" stroke="#42613B"/>
  <text x="293" y="115" text-anchor="middle" class="label">Grounded tasks</text>
  <rect x="220" y="158" width="146" height="48" rx="4" fill="#F0EEF7" stroke="#5E587A"/>
  <text x="293" y="187" text-anchor="middle" class="label">Self-play tasks</text>

  <rect x="420" y="110" width="136" height="70" rx="4" fill="#FBFAF7" stroke="#D6D1C8"/>
  <text x="488" y="140" text-anchor="middle" class="label">K attempts</text>
  <text x="488" y="158" text-anchor="middle" class="small">same problem group</text>

  <rect x="610" y="110" width="146" height="70" rx="4" fill="#F3F1EC" stroke="#5B5A55"/>
  <text x="683" y="140" text-anchor="middle" class="label">Multi-signal</text>
  <text x="683" y="158" text-anchor="middle" class="small">grading</text>

  <rect x="306" y="234" width="208" height="42" rx="4" fill="#ECF4EA" stroke="#587A4A"/>
  <text x="410" y="260" text-anchor="middle" class="label">GRPO reinforces the better paths</text>

  <path d="M166 145 L220 110" fill="none" stroke="#5B5A55" stroke-width="1.5" marker-end="url(#arrow)"/>
  <path d="M166 145 L220 182" fill="none" stroke="#5B5A55" stroke-width="1.5" marker-end="url(#arrow)"/>
  <path d="M366 110 L420 145" fill="none" stroke="#5B5A55" stroke-width="1.5" marker-end="url(#arrow)"/>
  <path d="M366 182 L420 145" fill="none" stroke="#5B5A55" stroke-width="1.5" marker-end="url(#arrow)"/>
  <path d="M556 145 L610 145" fill="none" stroke="#5B5A55" stroke-width="1.5" marker-end="url(#arrow)"/>
  <path d="M683 180 L514 234" fill="none" stroke="#5B5A55" stroke-width="1.5" marker-end="url(#arrow)"/>
  <path d="M306 255 C150 255 98 220 98 180" fill="none" stroke="#355C7D" stroke-width="1.5" stroke-dasharray="5 4" marker-end="url(#arrow)"/>
</svg>
