<svg xmlns="http://www.w3.org/2000/svg" viewBox="0 0 820 280" width="820" height="280">
  <defs>
    <marker id="arrow" viewBox="0 0 10 10" refX="8" refY="5" markerWidth="6" markerHeight="6" orient="auto-start-reverse">
      <path d="M2 1L8 5L2 9" fill="none" stroke="#5B5A55" stroke-width="1.5" stroke-linecap="round" stroke-linejoin="round"/>
    </marker>
    <style>
      text { font-family: Inter, Arial, sans-serif; }
      .title { font-size: 17px; font-weight: 700; fill: #171715; }
      .label { font-size: 13px; font-weight: 700; fill: #26323F; }
      .small { font-size: 11px; fill: #55524D; }
    </style>
  </defs>

  <rect x="150" y="18" width="520" height="42" rx="4" fill="#FBFAF7" stroke="#D6D1C8"/>
  <text x="410" y="45" text-anchor="middle" class="title">What The Environment Checks</text>

  <rect x="54" y="112" width="152" height="62" rx="4" fill="#EAF0F7" stroke="#355C7D"/>
  <text x="130" y="139" text-anchor="middle" class="label">One attempt</text>
  <text x="130" y="158" text-anchor="middle" class="small">steps + final answer</text>

  <rect x="274" y="82" width="138" height="42" rx="4" fill="#F3F1EC" stroke="#5B5A55"/>
  <text x="343" y="108" text-anchor="middle" class="small">answer check</text>
  <rect x="430" y="82" width="138" height="42" rx="4" fill="#F3F1EC" stroke="#5B5A55"/>
  <text x="499" y="108" text-anchor="middle" class="small">process score</text>
  <rect x="586" y="82" width="138" height="42" rx="4" fill="#F3F1EC" stroke="#5B5A55"/>
  <text x="655" y="108" text-anchor="middle" class="small">chain consistency</text>

  <rect x="274" y="156" width="138" height="42" rx="4" fill="#F3F1EC" stroke="#5B5A55"/>
  <text x="343" y="182" text-anchor="middle" class="small">symbolic checks</text>
  <rect x="430" y="156" width="138" height="42" rx="4" fill="#F3F1EC" stroke="#5B5A55"/>
  <text x="499" y="182" text-anchor="middle" class="small">format</text>
  <rect x="586" y="156" width="138" height="42" rx="4" fill="#F0EEF7" stroke="#5E587A"/>
  <text x="655" y="182" text-anchor="middle" class="small">question quality</text>

  <rect x="336" y="226" width="148" height="38" rx="4" fill="#ECF4EA" stroke="#587A4A"/>
  <text x="410" y="250" text-anchor="middle" class="label">one score</text>

  <path d="M206 143 L274 103" fill="none" stroke="#5B5A55" stroke-width="1.2" marker-end="url(#arrow)"/>
  <path d="M206 143 L274 177" fill="none" stroke="#5B5A55" stroke-width="1.2" marker-end="url(#arrow)"/>
  <path d="M655 198 L484 236" fill="none" stroke="#5B5A55" stroke-width="1.2" marker-end="url(#arrow)"/>
  <path d="M343 198 L376 226" fill="none" stroke="#5B5A55" stroke-width="1.2" marker-end="url(#arrow)"/>
  <path d="M499 198 L444 226" fill="none" stroke="#5B5A55" stroke-width="1.2" marker-end="url(#arrow)"/>
</svg>
