<svg xmlns="http://www.w3.org/2000/svg" viewBox="0 0 900 300" width="900" height="300">
  <defs>
    <marker id="arrow" viewBox="0 0 10 10" refX="8" refY="5" markerWidth="6" markerHeight="6" orient="auto-start-reverse">
      <path d="M2 1L8 5L2 9" fill="none" stroke="#475569" stroke-width="1.6" stroke-linecap="round" stroke-linejoin="round"/>
    </marker>
    <style>
      text { font-family: Inter, Arial, sans-serif; }
      .title { font-size: 19px; font-weight: 700; fill: #0F172A; }
      .label { font-size: 13px; font-weight: 700; fill: #0F172A; }
      .small { font-size: 11px; fill: #475569; }
      .line { fill: none; stroke: #475569; stroke-width: 1.5; marker-end: url(#arrow); }
    </style>
  </defs>

  <rect x="240" y="18" width="420" height="42" rx="8" fill="#F8FAFC" stroke="#CBD5E1"/>
  <text x="450" y="45" text-anchor="middle" class="title">GRPO Uses Relative Scores</text>

  <rect x="70" y="108" width="116" height="62" rx="10" fill="#F8FAFC" stroke="#CBD5E1"/>
  <text x="128" y="133" text-anchor="middle" class="label">Attempt A</text>
  <text x="128" y="153" text-anchor="middle" class="small">low score</text>

  <rect x="220" y="108" width="116" height="62" rx="10" fill="#F8FAFC" stroke="#CBD5E1"/>
  <text x="278" y="133" text-anchor="middle" class="label">Attempt B</text>
  <text x="278" y="153" text-anchor="middle" class="small">mid score</text>

  <rect x="370" y="92" width="140" height="78" rx="10" fill="#ECFDF5" stroke="#86A789" stroke-width="1.5"/>
  <text x="440" y="123" text-anchor="middle" class="label">Attempt C</text>
  <text x="440" y="145" text-anchor="middle" class="small">best in group</text>

  <rect x="544" y="108" width="116" height="62" rx="10" fill="#F8FAFC" stroke="#CBD5E1"/>
  <text x="602" y="133" text-anchor="middle" class="label">Attempt D</text>
  <text x="602" y="153" text-anchor="middle" class="small">low score</text>

  <rect x="326" y="218" width="228" height="48" rx="10" fill="#EEF2FF" stroke="#A5B4FC"/>
  <text x="440" y="247" text-anchor="middle" class="label">reinforce stronger path</text>

  <rect x="716" y="108" width="114" height="62" rx="10" fill="#EAF0F7" stroke="#93B5D8"/>
  <text x="773" y="133" text-anchor="middle" class="label">Model</text>
  <text x="773" y="153" text-anchor="middle" class="small">next batch</text>

  <path class="line" d="M440 170 L440 218"/>
  <path class="line" d="M554 242 C660 242 773 206 773 170"/>
  <path d="M716 139 C650 74 520 72 440 92" fill="none" stroke="#2563EB" stroke-width="1.4" stroke-dasharray="6 5" marker-end="url(#arrow)"/>
</svg>
