<svg xmlns="http://www.w3.org/2000/svg" viewBox="0 0 820 280" width="820" height="280">
  <defs>
    <marker id="arrow" viewBox="0 0 10 10" refX="8" refY="5" markerWidth="6" markerHeight="6" orient="auto-start-reverse">
      <path d="M2 1L8 5L2 9" fill="none" stroke="#5B5A55" stroke-width="1.5" stroke-linecap="round" stroke-linejoin="round"/>
    </marker>
    <style>
      text { font-family: Inter, Arial, sans-serif; }
      .title { font-size: 17px; font-weight: 700; fill: #171715; }
      .label { font-size: 13px; font-weight: 700; fill: #26323F; }
      .small { font-size: 11px; fill: #55524D; }
    </style>
  </defs>

  <rect x="150" y="18" width="520" height="42" rx="4" fill="#FBFAF7" stroke="#D6D1C8"/>
  <text x="410" y="45" text-anchor="middle" class="title">How GRPO Turns Scores Into Practice</text>

  <rect x="52" y="104" width="116" height="64" rx="4" fill="#EAF0F7" stroke="#355C7D"/>
  <text x="110" y="130" text-anchor="middle" class="label">Attempt A</text>
  <text x="110" y="150" text-anchor="middle" class="small">score 0.31</text>

  <rect x="196" y="104" width="116" height="64" rx="4" fill="#F5EFD1" stroke="#D6C987"/>
  <text x="254" y="130" text-anchor="middle" class="label">Attempt B</text>
  <text x="254" y="150" text-anchor="middle" class="small">score 0.58</text>

  <rect x="340" y="88" width="132" height="80" rx="4" fill="#ECF4EA" stroke="#587A4A" stroke-width="1.5"/>
  <text x="406" y="120" text-anchor="middle" class="label">Attempt C</text>
  <text x="406" y="142" text-anchor="middle" class="small">best in group</text>

  <rect x="500" y="104" width="116" height="64" rx="4" fill="#F5E6E3" stroke="#D7A39D"/>
  <text x="558" y="130" text-anchor="middle" class="label">Attempt D</text>
  <text x="558" y="150" text-anchor="middle" class="small">score 0.24</text>

  <rect x="332" y="210" width="154" height="46" rx="4" fill="#F0EEF7" stroke="#5E587A"/>
  <text x="409" y="238" text-anchor="middle" class="label">relative update</text>

  <rect x="662" y="104" width="112" height="64" rx="4" fill="#EAF0F7" stroke="#355C7D"/>
  <text x="718" y="130" text-anchor="middle" class="label">Next model</text>
  <text x="718" y="150" text-anchor="middle" class="small">next batch</text>

  <path d="M406 168 L406 210" fill="none" stroke="#5B5A55" stroke-width="1.5" marker-end="url(#arrow)"/>
  <path d="M486 233 C630 233 718 202 718 168" fill="none" stroke="#5B5A55" stroke-width="1.5" marker-end="url(#arrow)"/>
  <path d="M662 136 C620 70 500 62 410 88" fill="none" stroke="#355C7D" stroke-width="1.3" stroke-dasharray="5 4" marker-end="url(#arrow)"/>
</svg>
