<svg xmlns="http://www.w3.org/2000/svg" viewBox="0 0 900 340" width="900" height="340">
  <defs>
    <marker id="arrow" viewBox="0 0 10 10" refX="8" refY="5" markerWidth="6" markerHeight="6" orient="auto-start-reverse">
      <path d="M2 1L8 5L2 9" fill="none" stroke="#475569" stroke-width="1.6" stroke-linecap="round" stroke-linejoin="round"/>
    </marker>
    <style>
      text { font-family: Inter, Arial, sans-serif; }
      .title { font-size: 19px; font-weight: 700; fill: #0F172A; }
      .label { font-size: 13px; font-weight: 700; fill: #0F172A; }
      .small { font-size: 11px; fill: #475569; }
      .line { fill: none; stroke: #475569; stroke-width: 1.5; marker-end: url(#arrow); }
    </style>
  </defs>

  <rect x="250" y="18" width="400" height="42" rx="8" fill="#F8FAFC" stroke="#CBD5E1"/>
  <text x="450" y="45" text-anchor="middle" class="title">Two Sources, One Selected Task</text>

  <rect x="150" y="76" width="240" height="112" rx="10" fill="#ECFDF5" stroke="#86A789"/>
  <text x="270" y="108" text-anchor="middle" class="label">Grounded source</text>
  <text x="270" y="134" text-anchor="middle" class="small">GSM8K / MATH problem</text>
  <text x="270" y="153" text-anchor="middle" class="small">gold answer available</text>

  <rect x="510" y="116" width="240" height="112" rx="10" fill="#EEF2FF" stroke="#A5B4FC"/>
  <text x="630" y="148" text-anchor="middle" class="label">Self-play source</text>
  <text x="630" y="174" text-anchor="middle" class="small">skill + difficulty target</text>
  <text x="630" y="193" text-anchor="middle" class="small">model writes a question</text>

  <rect x="340" y="244" width="220" height="72" rx="10" fill="#FFF7ED" stroke="#FDBA74"/>
  <text x="450" y="272" text-anchor="middle" class="label">Selected problem</text>
  <text x="450" y="292" text-anchor="middle" class="small">then the model samples</text>
  <text x="450" y="308" text-anchor="middle" class="small">candidate solutions</text>

  <path class="line" d="M270 188 C270 226 350 230 390 244"/>
  <path class="line" d="M630 228 C630 242 550 242 510 244"/>
</svg>
