<svg xmlns="http://www.w3.org/2000/svg" version="1.1" viewBox="0 0 724 136" width="724" height="136"><defs></defs><g><g class="title" data-source-line="15"><rect x="248.64" y="5" width="225.49" height="26" rx="5" ry="5" fill="#FEFEFE" stroke="#00000000" stroke-width="1"></rect><text x="253.64" y="23" font-size="14" fill="#000000" xml:space="preserve" style="white-space: pre" font-weight="bold" font-family="Arial">AxiomForgeAI - Training Phases</text></g><g class="entity" data-entity="Warmup" data-qualified-name="Warmup" id="ent0002" data-source-line="17"><rect x="7" y="68.50" width="114.94" height="52" rx="5" ry="5" fill="#ECFDF5" stroke="#64748B" stroke-width="0.50"></rect><text x="17" y="91.50" font-size="14" fill="#0F172A" xml:space="preserve" style="white-space: pre" font-family="Arial">Phase 1</text><text x="17" y="107.50" font-size="14" fill="#0F172A" xml:space="preserve" style="white-space: pre" font-family="Arial">Grounded Only</text></g><g class="entity" data-entity="Ramp" data-qualified-name="Ramp" id="ent0003" data-source-line="18"><rect x="164.94" y="68.50" width="117.25" height="52" rx="5" ry="5" fill="#EEF2FF" stroke="#64748B" stroke-width="0.50"></rect><text x="174.94" y="91.50" font-size="14" fill="#0F172A" xml:space="preserve" style="white-space: pre" font-family="Arial">Phase 2</text><text x="174.94" y="107.50" font-size="14" fill="#0F172A" xml:space="preserve" style="white-space: pre" font-family="Arial">Self-Play Ramp</text></g><g class="entity" data-entity="Improve" data-qualified-name="Improve" id="ent0004" data-source-line="19"><rect x="325.20" y="68.50" width="111.29" height="52" rx="5" ry="5" fill="#F1F5F9" stroke="#64748B" stroke-width="0.50"></rect><text x="335.20" y="91.50" font-size="14" fill="#0F172A" xml:space="preserve" style="white-space: pre" font-family="Arial">Phase 3</text><text x="335.20" y="107.50" font-size="14" fill="#0F172A" xml:space="preserve" style="white-space: pre" font-family="Arial">Mixed Training</text></g><g class="entity" data-entity="Fallback" data-qualified-name="Fallback" id="ent0005" data-source-line="20"><rect x="570.49" y="68.50" width="145.29" height="52" rx="5" ry="5" fill="#EDE9FE" stroke="#64748B" stroke-width="0.50"></rect><text x="580.49" y="91.50" font-size="14" fill="#0F172A" xml:space="preserve" style="white-space: pre" font-family="Arial">Fallback</text><text x="580.49" y="107.50" font-size="14" fill="#0F172A" xml:space="preserve" style="white-space: pre" font-family="Arial">Grounded Recovery</text></g><g class="link" data-entity-1="Warmup" data-entity-2="Ramp" data-entity-1-uid="ent0002" data-entity-2-uid="ent0003" id="lnk6" data-source-line="22" data-link-type="dependency"><path d="M122.36,94.5 C136.13,94.5 144.84,94.5 158.66,94.5" fill="none" stroke="#334155" stroke-width="1"></path><polygon points="164.66,94.50 155.66,90.50 159.66,94.50 155.66,98.50 164.66,94.50" fill="#334155" stroke="#334155" stroke-width="1"></polygon></g><g class="link" data-entity-1="Ramp" data-entity-2="Improve" data-entity-1-uid="ent0003" data-entity-2-uid="ent0004" id="lnk7" data-source-line="23" data-link-type="dependency"><path d="M282.58,94.5 C296.44,94.5 305.17,94.5 318.89,94.5" fill="none" stroke="#334155" stroke-width="1"></path><polygon points="324.89,94.50 315.89,90.50 319.89,94.50 315.89,98.50 324.89,94.50" fill="#334155" stroke="#334155" stroke-width="1"></polygon></g><g class="link" data-entity-1="Improve" data-entity-2="Fallback" data-entity-1-uid="ent0004" data-entity-2-uid="ent0005" id="lnk8" data-source-line="24" data-link-type="dependency"><path d="M436.79,103.17 C475.76,103.17 522.11,103.17 564.32,103.17" fill="none" stroke="#334155" stroke-width="1"></path><polygon points="570.32,103.17 561.32,99.17 565.32,103.17 561.32,107.17 570.32,103.17" fill="#334155" stroke="#334155" stroke-width="1"></polygon><text x="458.49" y="57.50" font-size="14" fill="#000000" xml:space="preserve" style="white-space: pre" font-family="Arial">if quality drops</text></g><g class="link" data-entity-1="Fallback" data-entity-2="Improve" data-entity-1-uid="ent0005" data-entity-2-uid="ent0004" id="lnk9" data-source-line="25" data-link-type="dependency"><path d="M570.07,85.83 C527.94,85.83 481.77,85.83 442.89,85.83" fill="none" stroke="#334155" stroke-width="1"></path><polygon points="436.89,85.83 445.89,89.83 441.89,85.83 445.89,81.83 436.89,85.83" fill="#334155" stroke="#334155" stroke-width="1"></polygon><text x="480.49" y="122.50" font-size="14" fill="#000000" xml:space="preserve" style="white-space: pre" font-family="Arial">recover</text></g></g></svg>